<?xml version="1.0" encoding="iso-8859-1"?>
<!-- Generator: Adobe Illustrator 19.0.0, SVG Export Plug-In . SVG Version: 6.00 Build 0)  -->
<svg version="1.1" id="Capa_1" xmlns="http://www.w3.org/2000/svg" xmlns:xlink="http://www.w3.org/1999/xlink" x="0px" y="0px"
	 viewBox="0 0 512 512" style="enable-background:new 0 0 512 512;" xml:space="preserve">
<polygon style="fill:#009E2A;" points="512,95.602 256,95.602 235.984,231.312 512,211.296 "/>
<polygon style="fill:#00DC3B;" points="0,95.602 0,211.296 256,231.312 256,95.602 "/>
<path style="fill:#DCE4EC;" d="M256,0l-20.016,95.602L256,191.28c52.737,0,95.64-42.904,95.64-95.64S308.737,0,256,0z"/>
<path style="fill:#F7F7F8;" d="M160.36,95.64c0,52.736,42.903,95.64,95.64,95.64V0C203.263,0,160.36,42.904,160.36,95.64z"/>
<polygon style="fill:#009E2A;" points="271,110.64 303.839,110.64 303.839,80.64 271,80.64 271,47.801 256,47.801 245.992,95.602 
	256,143.479 271,143.479 "/>
<polygon style="fill:#00DC3B;" points="241,47.801 241,80.64 208.161,80.64 208.161,110.64 241,110.64 241,143.479 256,143.479 
	256,47.801 "/>
<polygon style="fill:#DCE4EC;" points="512,211.296 256,211.296 235.984,345.194 256,512 319.734,512 384,491.984 448.266,512 
	512,512 "/>
<rect x="319.73" y="255.49" style="fill:#BDC4CB;" width="128.53" height="256.51"/>
<rect y="211.3" style="fill:#F7F7F8;" width="256" height="300.7"/>
<rect x="31.918" y="255.49" style="fill:#DCE4EC;" width="192.16" height="160.83"/>
<g>
</g>
<g>
</g>
<g>
</g>
<g>
</g>
<g>
</g>
<g>
</g>
<g>
</g>
<g>
</g>
<g>
</g>
<g>
</g>
<g>
</g>
<g>
</g>
<g>
</g>
<g>
</g>
<g>
</g>
</svg>
